<svg xmlns="http://www.w3.org/2000/svg" xmlns:xlink="http://www.w3.org/1999/xlink" viewBox="0 0 1688.74 326.87">
	<defs>
		<style>
			.cls-1{fill:url(#radial-gradient);}.cls-2{fill:#f6e820;}.cls-3{fill:url(#radial-gradient-2);}.cls-4{fill:url(#radial-gradient-3);}.cls-5{fill:none;stroke:#273140;stroke-linecap:round;stroke-linejoin:round;stroke-width:8px;opacity:0.2;}.cls-6{fill:#273140;}
			@media (prefers-color-scheme: dark) {
			.cls-1{fill:url(#radial-gradient);}.cls-2{fill:#f6e820;}.cls-3{fill:url(#radial-gradient-2);}.cls-4{fill:url(#radial-gradient-3);}.cls-5{fill:none;stroke:#f6f6f6;stroke-linecap:round;stroke-linejoin:round;stroke-width:8px;opacity:0.2;}.cls-6{fill:#f6f6f6;}
			}
		</style>
		<radialGradient id="radial-gradient" cx="57.33" cy="759.4" r="318.71" gradientTransform="matrix(1, 0, 0, -1, 0, 943.99)" gradientUnits="userSpaceOnUse">
			<stop offset="1" stop-color="#2caae1" />
			<stop offset="1" stop-color="#2d3b8e" />
		</radialGradient>
		<radialGradient id="radial-gradient-2" cx="103.88" cy="671.02" r="152.02" gradientTransform="matrix(1, 0, 0, -1, 0, 943.99)" gradientUnits="userSpaceOnUse">
			<stop offset="0" stop-color="#8fc045" />
			<stop offset="0" stop-color="#ec6425" />
		</radialGradient>
		<radialGradient id="radial-gradient-3" cx="132.37" cy="792.09" r="145.33" gradientTransform="matrix(1, 0, 0, -1, 0, 943.99)" gradientUnits="userSpaceOnUse">
			<stop offset="0" stop-color="#8fc045" />
			<stop offset="1" stop-color="#8fc045" />
		</radialGradient>
	</defs>
	<g id="Layer_2" data-name="Layer 2">
		<g id="Layer_1-2" data-name="Layer 1">
			<g id="Layer_2-2" data-name="Layer 2">
				<g id="Layer_1-2-2" data-name="Layer 1-2">
					<path class="cls-1" d="M86.43,279.14s-43-38,3.62-87.73S244.93,206.78,208.31,293.6c19.95-47.3,14.91-102.72-33.05-130.74-48.32-28.24-114.47-32.63-151.83,16.42C.24,209.74,10.08,252.55,43.35,271a69,69,0,0,0,20,7.27C67.28,279.08,84.39,277.32,86.43,279.14Z" />
					<path class="cls-2" d="M67.61,51.8S58,69.74,111.78,171.52C153.43,282.21,48.6,318.08,4.31,250.2c0,0,19.83,62.26,85.49,57s62.62-115.59,62.62-115.59Z" />
					<path class="cls-3" d="M73,68.55S62.88,85.66,122.76,181.32c46.91,104.25-66.29,139.63-115.4,76,0,0,22.47,58.68,93.64,52.86s66.18-110.3,66.18-110.3Z" />
					<path class="cls-4" d="M67.55,4S48.88,59.22,143,123s63,200.65-30.34,199.87S-8.67,248.2,2.22,213.21c0,0-10.89,59.1,53.66,83.21s133-34.22,70.77-123.66S57.44,46.77,67.55,4Z" />
				</g>
			</g>
			<line class="cls-5" x1="344.07" y1="4" x2="344.07" y2="322.87" />
			<path class="cls-6" d="M497.24,103.76q14.68,0,25.42,5.52a49.72,49.72,0,0,1,18.14,16.26l-11.87,11.38q-6.28-9.57-14.11-13.78a38.79,38.79,0,0,0-18.56-4.2,34,34,0,0,0-13,2.14,16.4,16.4,0,0,0-7.51,5.69,14.06,14.06,0,0,0-2.39,8,12.61,12.61,0,0,0,3.55,8.91q3.54,3.8,13.28,5.94l22.11,5Q528.1,158,534.7,165.14t6.6,18a28.71,28.71,0,0,1-5.45,17.49A34.37,34.37,0,0,1,520.76,212q-9.66,4-22.69,4a67.78,67.78,0,0,1-20.79-3,55.69,55.69,0,0,1-16.17-8.09,48,48,0,0,1-11.39-11.71L461.93,181a42.21,42.21,0,0,0,8.75,10.31,38.24,38.24,0,0,0,12.29,7,46.62,46.62,0,0,0,15.6,2.48A42.18,42.18,0,0,0,511.68,199a17.63,17.63,0,0,0,8.42-5.36,13.08,13.08,0,0,0,2.89-8.5,12.31,12.31,0,0,0-3.22-8.41q-3.22-3.63-12-5.61l-23.92-5.45a52.14,52.14,0,0,1-16.33-6.1,26.34,26.34,0,0,1-9.58-9.66,26,26,0,0,1-3.13-12.78,29.45,29.45,0,0,1,5-16.75,35.22,35.22,0,0,1,14.6-12Q484,103.76,497.24,103.76Z" />
			<path class="cls-6" d="M668.51,131.81h19.14l-27.72,82.5h-19.3l-20.79-61.22L600.2,214.31H580.9l-27.56-82.5h19L591.13,197l20.46-65.17h17.65L649.71,197Z" />
			<path class="cls-6" d="M738,130.16a43.2,43.2,0,0,1,21.28,5.11A35.88,35.88,0,0,1,773.7,150q5.2,9.65,5.2,23t-5.2,23a35.88,35.88,0,0,1-14.44,14.77,46.8,46.8,0,0,1-42.57,0,36.43,36.43,0,0,1-14.52-14.77q-5.28-9.65-5.28-23t5.28-23a36.43,36.43,0,0,1,14.52-14.77A43.24,43.24,0,0,1,738,130.16ZM738,144a22.58,22.58,0,0,0-12.62,3.38,21.62,21.62,0,0,0-8,9.82q-2.8,6.43-2.8,15.84a39.72,39.72,0,0,0,2.8,15.75,21.53,21.53,0,0,0,8,9.9A22.59,22.59,0,0,0,738,202.1a22.2,22.2,0,0,0,12.54-3.39,21.75,21.75,0,0,0,7.92-9.9,39.72,39.72,0,0,0,2.8-15.75q0-9.41-2.8-15.84a21.83,21.83,0,0,0-7.92-9.82A22.2,22.2,0,0,0,738,144Z" />
			<path class="cls-6" d="M837,130.16a43.2,43.2,0,0,1,21.28,5.11A35.88,35.88,0,0,1,872.7,150q5.2,9.65,5.2,23t-5.2,23a35.88,35.88,0,0,1-14.44,14.77,46.8,46.8,0,0,1-42.57,0,36.43,36.43,0,0,1-14.52-14.77q-5.28-9.65-5.28-23t5.28-23a36.43,36.43,0,0,1,14.52-14.77A43.24,43.24,0,0,1,837,130.16ZM837,144a22.58,22.58,0,0,0-12.62,3.38,21.62,21.62,0,0,0-8,9.82q-2.8,6.43-2.8,15.84a39.72,39.72,0,0,0,2.8,15.75,21.53,21.53,0,0,0,8,9.9A22.59,22.59,0,0,0,837,202.1a22.2,22.2,0,0,0,12.54-3.39,21.75,21.75,0,0,0,7.92-9.9,39.72,39.72,0,0,0,2.8-15.75q0-9.41-2.8-15.84a21.83,21.83,0,0,0-7.92-9.82A22.2,22.2,0,0,0,837,144Z" />
			<path class="cls-6" d="M900.17,249V131.81h15.68l1.32,23.1-2.31-2.81a32.48,32.48,0,0,1,6.1-11.38A28.59,28.59,0,0,1,931.27,133a32.63,32.63,0,0,1,13.62-2.8,34.07,34.07,0,0,1,18.31,5.11,35.62,35.62,0,0,1,13,14.6q4.78,9.49,4.78,23t-4.87,23.18A35.57,35.57,0,0,1,963,210.84,34.76,34.76,0,0,1,944.39,216q-10.56,0-18-5.53a30.12,30.12,0,0,1-10.56-14.11l2-2.8V249ZM940.6,201.6q10.73,0,16.74-7.59t6-20.95q0-13.37-5.94-21t-16.5-7.67a21,21,0,0,0-12.13,3.54,23.42,23.42,0,0,0-8.09,9.9,36.82,36.82,0,0,0-2.88,15.27,37.77,37.77,0,0,0,2.8,15.18,22.4,22.4,0,0,0,7.92,9.9A21,21,0,0,0,940.6,201.6Z" />
			<path class="cls-6" d="M1054.65,107.34q26.07,0,40.17,13.78T1108.93,161q0,26.9-14.11,41.08t-40.17,14.19h-34.32V107.34Zm.66,101.31q21.78,0,33.41-12.37T1100.35,161q0-22.11-11.63-34.07t-33.41-12h-26.73v93.72Z" />
			<path class="cls-6" d="M1184.33,162q0-10.72-5.77-16.67t-16.5-5.94a30.91,30.91,0,0,0-16.17,4.05q-6.77,4-10.07,13.44l-6.76-4.29a29.5,29.5,0,0,1,12.13-15.09q8.49-5.37,21-5.37a37.19,37.19,0,0,1,15.93,3.22,24.18,24.18,0,0,1,10.64,9.49q3.8,6.27,3.79,15.67v41.25q0,8.76,7.92,8.75a13.85,13.85,0,0,0,6-1.16l-.5,6.6a15.48,15.48,0,0,1-7.26,1.49,17.11,17.11,0,0,1-7.1-1.49,11.9,11.9,0,0,1-5.36-4.95q-2.06-3.47-2.06-9.4V197.1l2.31-.16a21.84,21.84,0,0,1-6.52,11.8,31.75,31.75,0,0,1-11.63,6.93,41.19,41.19,0,0,1-13.2,2.22,36.63,36.63,0,0,1-13.86-2.47,21.62,21.62,0,0,1-9.57-7.18,19.06,19.06,0,0,1-3.47-11.63q0-9.24,6.19-14.93t17.41-7.84l34.15-6.77V174l-30,5.94q-9.73,2-14.52,5.78a13.67,13.67,0,0,0,.33,21q5.12,3.87,14.52,3.87a37.29,37.29,0,0,0,9.74-1.32,29.43,29.43,0,0,0,9.16-4.2,21.77,21.77,0,0,0,6.68-7.26,21.32,21.32,0,0,0,2.47-10.65Z" />
			<path class="cls-6" d="M1265.51,133.74v7.1h-55.6v-7.1Zm-30.85-22.93v83.65q0,7.77,3.71,11.8t10.81,4a20.15,20.15,0,0,0,8.17-1.56,19.69,19.69,0,0,0,6.35-4.54l3.13,6.76a23,23,0,0,1-7.92,5,29,29,0,0,1-10.72,1.89,25.81,25.81,0,0,1-11.39-2.39,17.06,17.06,0,0,1-7.67-7.34q-2.72-4.95-2.72-12.54v-82.5Z" />
			<path class="cls-6" d="M1333.66,162q0-10.72-5.77-16.67t-16.5-5.94a30.86,30.86,0,0,0-16.17,4.05q-6.78,4-10.07,13.44l-6.76-4.29a29.48,29.48,0,0,1,12.12-15.09q8.51-5.37,21-5.37a37.12,37.12,0,0,1,15.92,3.22,24.12,24.12,0,0,1,10.64,9.49q3.8,6.27,3.8,15.67v41.25q0,8.76,7.92,8.75a13.8,13.8,0,0,0,5.94-1.16l-.5,6.6a15.48,15.48,0,0,1-7.26,1.49,17.07,17.07,0,0,1-7.09-1.49,11.85,11.85,0,0,1-5.36-4.95q-2.07-3.47-2.07-9.4V197.1l2.31-.16a21.89,21.89,0,0,1-6.51,11.8,31.88,31.88,0,0,1-11.64,6.93,41.19,41.19,0,0,1-13.2,2.22,36.54,36.54,0,0,1-13.85-2.47,21.6,21.6,0,0,1-9.58-7.18,19.12,19.12,0,0,1-3.46-11.63q0-9.24,6.19-14.93t17.4-7.84l34.16-6.77V174l-30,5.94q-9.73,2-14.52,5.78a13.65,13.65,0,0,0,.33,21q5.12,3.87,14.52,3.87a37.34,37.34,0,0,0,9.74-1.32,29.38,29.38,0,0,0,9.15-4.2,21.67,21.67,0,0,0,6.68-7.26,21.32,21.32,0,0,0,2.48-10.65Z" />
			<path class="cls-6" d="M1406.09,132.09a40.39,40.39,0,0,1,15,2.64,30.85,30.85,0,0,1,11.22,7.59,33.63,33.63,0,0,1,7.09,12.05l-7.75,3.63a25.68,25.68,0,0,0-9.16-13.78q-6.51-4.86-16.58-4.87a30.29,30.29,0,0,0-16,4.21,27.81,27.81,0,0,0-10.72,12.21q-3.79,8-3.8,19.22a44.61,44.61,0,0,0,3.8,19.14,28,28,0,0,0,10.56,12.3,29.71,29.71,0,0,0,16,4.2,33.14,33.14,0,0,0,12.63-2.31,23.4,23.4,0,0,0,9.4-6.76,22.76,22.76,0,0,0,4.87-10.56l7.59,2.64A31.94,31.94,0,0,1,1421.44,215a40.06,40.06,0,0,1-15.51,2.88,39.24,39.24,0,0,1-20-5.11A35.14,35.14,0,0,1,1372.1,198q-4.95-9.64-4.95-23t5-23a35.56,35.56,0,0,1,13.86-14.77A39.21,39.21,0,0,1,1406.09,132.09Z" />
			<path class="cls-6" d="M1496,132.09a39.93,39.93,0,0,1,20.38,5.12A35.69,35.69,0,0,1,1530.26,152q5,9.65,5,23t-5,23a35.69,35.69,0,0,1-13.86,14.77,43.2,43.2,0,0,1-40.76,0A35.69,35.69,0,0,1,1461.78,198q-5-9.64-5-23t5-23a35.69,35.69,0,0,1,13.86-14.77A39.9,39.9,0,0,1,1496,132.09Zm0,7.1a30.42,30.42,0,0,0-16.34,4.29,28.79,28.79,0,0,0-10.8,12.29q-3.89,8-3.88,19.22t3.88,19.14a28.64,28.64,0,0,0,10.8,12.38,33.24,33.24,0,0,0,32.67,0,28.66,28.66,0,0,0,10.81-12.38A43.87,43.87,0,0,0,1527,175q0-11.2-3.88-19.22a28.81,28.81,0,0,0-10.81-12.29A30.39,30.39,0,0,0,1496,139.19Z" />
			<path class="cls-6" d="M1558.88,216.24v-82.5h7.43l.49,17.16A28.24,28.24,0,0,1,1578.6,137a34.49,34.49,0,0,1,18.23-4.95,33.18,33.18,0,0,1,18.56,5.12,26.16,26.16,0,0,1,10.81,15,26.5,26.5,0,0,1,6.93-10.8,33.63,33.63,0,0,1,11.22-7,36.94,36.94,0,0,1,13.37-2.47,35.49,35.49,0,0,1,15.59,3.38,26.58,26.58,0,0,1,11.22,10.23q4.21,6.86,4.21,17.08v53.46h-8.25V163.44q0-12.19-6.52-18.23t-17.24-6a28.86,28.86,0,0,0-14.36,3.71,27.61,27.61,0,0,0-10.48,10.4,30.21,30.21,0,0,0-3.87,15.42v47.52h-8.25V163.61q0-12.21-6.6-18.23t-17.16-6a28.78,28.78,0,0,0-24.75,14,30.47,30.47,0,0,0-4.13,16.17v46.69Z" />
		</g>
	</g>
</svg>
