<svg xmlns="http://www.w3.org/2000/svg" xmlns:xlink="http://www.w3.org/1999/xlink" width="1em" height="1em" preserveAspectRatio="xMidYMid meet" viewBox="0 0 32 32" style="-ms-transform: rotate(360deg); -webkit-transform: rotate(360deg); transform: rotate(360deg);">
	<defs>
		<style type="text/css">
			.cls-1{
			fill: #273140;
			}
			@media (prefers-color-scheme: dark) {
			.cls-1{
			fill: #fff;
			}
			}
		</style>
	</defs>
	<path class="cls-1" fill="currentColor" d="M16 14h2v2h-2zm4 0h2v2h-2zm4 0h2v2h-2zm-8 4h2v2h-2zm4 0h2v2h-2zm4 0h2v2h-2zm-8 4h2v2h-2zm4 0h2v2h-2zm4 0h2v2h-2zm-8-12h10v2H16z" />
	<path class="cls-1" fill="currentColor" d="M28 6H14V5a2.002 2.002 0 0 0-2-2H8a2.002 2.002 0 0 0-2 2v1H4a2.002 2.002 0 0 0-2 2v18a2.002 2.002 0 0 0 2 2h24a2.002 2.002 0 0 0 2-2V8a2.002 2.002 0 0 0-2-2ZM8 5h4v17H8Zm20 21H4V8h2v14a2.002 2.002 0 0 0 2 2h4a2.002 2.002 0 0 0 2-2V8h14Z" />
</svg>
